<mxfile host="app.diagrams.net" agent="Mozilla/5.0 (X11; Ubuntu; Linux x86_64; rv:137.0) Gecko/20100101 Firefox/137.0" version="26.2.14">
  <diagram name="Page-1" id="KzV6HsreagNqAqcYUTjX">
    <mxGraphModel dx="1426" dy="795" grid="1" gridSize="10" guides="1" tooltips="1" connect="1" arrows="1" fold="1" page="1" pageScale="1" pageWidth="850" pageHeight="1100" math="0" shadow="0">
      <root>
        <mxCell id="0" />
        <mxCell id="1" parent="0" />
        <mxCell id="iyFhU0tsveUdaoyFK_D6-21" value="&lt;font&gt;GET / PATCH / PUT / DELETE&lt;/font&gt;" style="rounded=1;whiteSpace=wrap;html=1;labelPosition=center;verticalLabelPosition=middle;align=center;verticalAlign=bottom;fillColor=#dae8fc;strokeColor=#6c8ebf;" vertex="1" parent="1">
          <mxGeometry x="227.5" y="170" width="140" height="80" as="geometry" />
        </mxCell>
        <mxCell id="iyFhU0tsveUdaoyFK_D6-20" value="&lt;div&gt;POST / GET&lt;/div&gt;" style="rounded=1;whiteSpace=wrap;html=1;labelPosition=center;verticalLabelPosition=middle;align=center;verticalAlign=bottom;fillColor=#dae8fc;strokeColor=#6c8ebf;" vertex="1" parent="1">
          <mxGeometry x="227.5" y="90" width="140" height="70" as="geometry" />
        </mxCell>
        <mxCell id="iyFhU0tsveUdaoyFK_D6-18" value="&lt;div&gt;POST / GET&lt;/div&gt;" style="rounded=1;whiteSpace=wrap;html=1;labelPosition=center;verticalLabelPosition=middle;align=center;verticalAlign=bottom;fillColor=#dae8fc;strokeColor=#6c8ebf;" vertex="1" parent="1">
          <mxGeometry x="380" y="90" width="200" height="70" as="geometry" />
        </mxCell>
        <mxCell id="iyFhU0tsveUdaoyFK_D6-17" value="&lt;div&gt;GET&lt;/div&gt;" style="rounded=1;whiteSpace=wrap;html=1;labelPosition=center;verticalLabelPosition=middle;align=center;verticalAlign=bottom;fillColor=#dae8fc;strokeColor=#6c8ebf;" vertex="1" parent="1">
          <mxGeometry x="590" y="130" width="200" height="70" as="geometry" />
        </mxCell>
        <mxCell id="iyFhU0tsveUdaoyFK_D6-16" value="&lt;div&gt;POST / GET&lt;/div&gt;" style="rounded=1;whiteSpace=wrap;html=1;labelPosition=center;verticalLabelPosition=middle;align=center;verticalAlign=bottom;fillColor=#dae8fc;strokeColor=#6c8ebf;" vertex="1" parent="1">
          <mxGeometry x="10" y="130" width="210" height="70" as="geometry" />
        </mxCell>
        <mxCell id="iyFhU0tsveUdaoyFK_D6-1" value="/api" style="rounded=1;whiteSpace=wrap;html=1;" vertex="1" parent="1">
          <mxGeometry x="10" y="10" width="780" height="30" as="geometry" />
        </mxCell>
        <mxCell id="iyFhU0tsveUdaoyFK_D6-2" value="/events" style="rounded=1;whiteSpace=wrap;html=1;" vertex="1" parent="1">
          <mxGeometry x="10" y="90" width="210" height="30" as="geometry" />
        </mxCell>
        <mxCell id="iyFhU0tsveUdaoyFK_D6-3" value="/entries" style="rounded=1;whiteSpace=wrap;html=1;" vertex="1" parent="1">
          <mxGeometry x="20" y="140" width="90" height="30" as="geometry" />
        </mxCell>
        <mxCell id="iyFhU0tsveUdaoyFK_D6-4" value="/exits" style="rounded=1;whiteSpace=wrap;html=1;" vertex="1" parent="1">
          <mxGeometry x="120" y="140" width="90" height="30" as="geometry" />
        </mxCell>
        <mxCell id="iyFhU0tsveUdaoyFK_D6-7" value="/entrances" style="rounded=1;whiteSpace=wrap;html=1;" vertex="1" parent="1">
          <mxGeometry x="237.5" y="100" width="115" height="30" as="geometry" />
        </mxCell>
        <mxCell id="iyFhU0tsveUdaoyFK_D6-8" value="/images" style="rounded=1;whiteSpace=wrap;html=1;" vertex="1" parent="1">
          <mxGeometry x="390" y="100" width="180" height="30" as="geometry" />
        </mxCell>
        <mxCell id="iyFhU0tsveUdaoyFK_D6-9" value="/device" style="rounded=1;whiteSpace=wrap;html=1;" vertex="1" parent="1">
          <mxGeometry x="590" y="90" width="200" height="30" as="geometry" />
        </mxCell>
        <mxCell id="iyFhU0tsveUdaoyFK_D6-10" value="/poll" style="rounded=1;whiteSpace=wrap;html=1;" vertex="1" parent="1">
          <mxGeometry x="600" y="140" width="80" height="30" as="geometry" />
        </mxCell>
        <mxCell id="iyFhU0tsveUdaoyFK_D6-11" value="/settings" style="rounded=1;whiteSpace=wrap;html=1;" vertex="1" parent="1">
          <mxGeometry x="690" y="140" width="90" height="30" as="geometry" />
        </mxCell>
        <mxCell id="iyFhU0tsveUdaoyFK_D6-19" value="&lt;div&gt;/&amp;lt;id&amp;gt;&lt;/div&gt;" style="rounded=1;whiteSpace=wrap;html=1;" vertex="1" parent="1">
          <mxGeometry x="240" y="180" width="115" height="30" as="geometry" />
        </mxCell>
        <mxCell id="iyFhU0tsveUdaoyFK_D6-22" value="/v1" style="rounded=1;whiteSpace=wrap;html=1;" vertex="1" parent="1">
          <mxGeometry x="10" y="50" width="780" height="30" as="geometry" />
        </mxCell>
      </root>
    </mxGraphModel>
  </diagram>
</mxfile>
